<svg xmlns="http://www.w3.org/2000/svg" version="1.1" xmlns:xlink="http://www.w3.org/1999/xlink" xmlns:svgjs="http://svgjs.dev/svgjs" width="1000" height="1000" viewBox="0 0 1000 1000"><g transform="matrix(1,0,0,1,-0.14221556886212738,-0.14221556886229791)"><svg viewBox="0 0 334 334" data-background-color="#ffffff" preserveAspectRatio="xMidYMid meet" height="1000" width="1000" xmlns="http://www.w3.org/2000/svg" xmlns:xlink="http://www.w3.org/1999/xlink"><g id="tight-bounds" transform="matrix(1,0,0,1,0.04749999999998522,0.04750000000001364)"><svg viewBox="0 0 333.90454557049503 333.90454557049503" height="333.90454557049503" width="333.90454557049503"><g><svg></svg></g><g><svg viewBox="0 0 333.90454557049503 333.90454557049503" height="333.90454557049503" width="333.90454557049503"><g><path d="M0 166.952c0-92.205 74.747-166.952 166.952-166.952 92.205 0 166.952 74.747 166.953 166.952 0 92.205-74.747 166.952-166.953 166.953-92.205 0-166.952-74.747-166.952-166.953zM166.952 316.63c82.665 0 149.677-67.013 149.678-149.678 0-82.665-67.013-149.677-149.678-149.677-82.665 0-149.677 67.013-149.677 149.677 0 82.665 67.013 149.677 149.677 149.678z" data-fill-palette-color="tertiary" fill="#ee3e38" stroke="transparent"></path><ellipse rx="160.27418187383762" ry="160.27418187383762" cx="166.95227278524752" cy="166.95227278524752" fill="#ee3e38" stroke="transparent" stroke-width="0" fill-opacity="1" data-fill-palette-color="tertiary"></ellipse></g><g transform="matrix(1,0,0,1,82.1716229598311,71.17305217166896)"><svg viewBox="0 0 169.56129965083284 191.55844122715712" height="191.55844122715712" width="169.56129965083284"><g><svg viewBox="0 0 169.56129965083284 191.55844122715712" height="191.55844122715712" width="169.56129965083284"><g><svg viewBox="0 0 169.56129965083284 191.55844122715712" height="191.55844122715712" width="169.56129965083284"><g><svg viewBox="0 0 169.56129965083284 191.55844122715712" height="191.55844122715712" width="169.56129965083284"><g><svg viewBox="0 0 169.56129965083284 191.55844122715712" height="191.55844122715712" width="169.56129965083284"><g><svg viewBox="0 0 169.56129965083284 191.55844122715712" height="191.55844122715712" width="169.56129965083284"><g transform="matrix(1,0,0,1,0,0)"><svg width="169.56129965083284" viewBox="-0.4000000059604645 -36.29999923706055 37 41.79999923706055" height="191.55844122715712" data-palette-color="#ffffff"><path d="M27.9-8.8L27.9-8.8Q28.25-8.8 28.25-8.45 28.25-8.1 27.7-7.85L27.7-7.85Q24.3-6.15 19.7-6L19.7-6Q17.3-1.4 17.25-1.28 17.2-1.15 17.03-0.78 16.85-0.4 16.7-0.2L16.7-0.2Q16.4 0.3 16.05 0.3L16.05 0.3Q15.15 0.3 15.15-0.95L15.15-0.95Q15.15-3.6 14.5-6.35L14.5-6.35Q11.75-6.75 9.45-7.6L9.45-7.6 2.7 4.45 1.65 5.2Q1.05 5.5 0.7 5.5L0.7 5.5Q0.25 5.5 0.25 5L0.25 5Q0.25 4.7 0.45 4.3L0.45 4.3 7.65-8.35Q4-10 1.8-12.58-0.4-15.15-0.4-18.3L-0.4-18.3Q-0.4-22.45 2.6-22.45L2.6-22.45Q4.55-22.45 7.08-20.55 9.6-18.65 11.75-15.5L11.75-15.5 21.5-32.7Q22.05-33.5 23.45-33.5L23.45-33.5Q23.8-33.5 23.8-33.27 23.8-33.05 12.85-13.6L12.85-13.6Q14.6-10.45 15.4-7.05L15.4-7.05Q16.85-6.85 18.8-6.85L18.8-6.85Q24.45-17.85 34.15-35.2L34.15-35.2Q34.7-36.2 36.2-36.3L36.2-36.3Q36.6-36.3 36.6-36.02 36.6-35.75 36.25-35.15 35.9-34.55 33.2-29.8L33.2-29.8Q23.4-12.75 20.2-6.85L20.2-6.85Q24.4-7.1 27.9-8.8ZM8.15-9.2L8.15-9.2 11-14.2Q9.1-17.05 6.85-18.8 4.6-20.55 3.05-20.55L3.05-20.55Q1.35-20.55 1.35-18.5L1.35-18.5Q1.35-15.55 3.18-13.15 5-10.75 8.15-9.2ZM9.95-8.45L9.95-8.45Q11.95-7.65 14.25-7.25L14.25-7.25Q13.4-10 12.15-12.35L12.15-12.35Q10-8.55 9.95-8.45ZM15.55-6.2L15.55-6.2Q16-4 16-1.8L16-1.8 16.05-1.25Q16.4-2.05 18.35-6L18.35-6Q17.45-6 15.55-6.2Z" opacity="1" transform="matrix(1,0,0,1,0,0)" fill="#ffffff" class="undefined-text-0" data-fill-palette-color="quaternary" id="text-0"></path></svg></g></svg></g></svg></g></svg></g><g></g></svg></g></svg></g></svg></g></svg></g><defs></defs></svg><rect width="333.90454557049503" height="333.90454557049503" fill="none" stroke="none" visibility="hidden"></rect></g></svg></g></svg>